<svg width="960" height="540" xmlns="http://www.w3.org/2000/svg" xmlns:xlink="http://www.w3.org/1999/xlink" overflow="hidden"><defs><clipPath id="clip0"><rect x="0" y="0" width="960" height="540"/></clipPath></defs><g clip-path="url(#clip0)"><rect x="0" y="0" width="960" height="540" fill="#0E2A47"/><path d="M688.432 218C677.28 218.014 667.222 222.982 663 230.587 672.551 231.546 681.214 235.21 687.15 240.806 690.09 240.23 693.086 239.944 696.069 239.944 702.643 239.944 709.148 241.322 714.796 243.995 719.994 231.021 706.796 218 688.451 218Z" fill="#48FFD5" fill-rule="evenodd"/><path d="M658.224 235.005C658.162 235.005 658.094 235.005 658.026 235.005 651.111 235.018 644.418 236.859 639.176 240.202 634.748 243.02 631.476 246.706 629.729 250.849L629.025 250.849C615.787 250.849 605 259.184 605 269.429 605 279.674 615.768 287.995 629.025 287.995L696.369 287.995C711.596 287.995 723.994 278.408 723.994 266.625 723.994 262.605 722.524 258.659 719.74 255.22 717.078 251.922 713.232 249.241 708.619 247.451 704.785 245.975 700.58 245.236 696.376 245.236 692.276 245.236 688.176 245.934 684.409 247.341 680.526 241.591 673.647 237.343 665.411 235.717 663.058 235.251 660.65 235.005 658.224 235.005Z" fill="#48FFD5" fill-rule="evenodd"/><path d="M806.505 152.004C794.081 152.004 784.005 160.053 784.005 169.996 784.005 179.939 794.081 188 806.505 188 818.919 188 828.995 179.939 828.995 169.996 828.995 160.053 818.919 152.004 806.505 152.004Z" fill="#48FFD5" fill-rule="evenodd"/><path d="M806.512 147.313C821.857 147.313 834.334 157.487 834.334 169.996 834.334 182.505 821.857 192.691 806.512 192.691 791.158 192.691 778.68 182.505 778.68 169.996 778.68 157.487 791.158 147.313 806.512 147.313ZM806.507 133C806.083 133 805.655 133.084 805.269 133.253L796.464 137.047 786.51 137.047C785.63 137.047 784.806 137.392 784.326 137.995L778.666 144.722 769.847 148.515C769.084 148.849 768.557 149.463 768.458 150.177L767.253 158.294 761.598 165.024C761.113 165.6 761 166.353 761.315 167.013L764.842 174.665 763.637 182.781C763.524 183.488 763.853 184.194 764.503 184.666L771.947 190.088 775.478 197.732C775.789 198.4 776.486 198.899 777.319 199.072L786.991 201.026 794.435 206.447C794.924 206.804 795.56 206.996 796.205 206.996 796.422 206.996 796.633 206.977 796.845 206.935L806.512 204.969 816.169 206.923C816.367 206.969 816.593 206.992 816.809 206.992 817.459 206.992 818.085 206.797 818.579 206.436L826.024 201.014 835.681 199.06C836.528 198.887 837.211 198.388 837.522 197.72L841.053 190.076 848.497 184.655C849.147 184.183 849.476 183.476 849.359 182.77L848.172 174.653 851.699 167.001C852 166.341 851.901 165.6 851.402 165.013L845.761 158.294 844.556 150.166C844.457 149.463 843.93 148.849 843.167 148.515L834.348 144.71 828.703 137.984C828.208 137.392 827.384 137.047 826.504 137.047L816.55 137.047 807.745 133.253C807.359 133.084 806.931 133 806.507 133Z" fill="#48FFD5" fill-rule="evenodd"/><path d="M798.008 297C796.347 297 795.005 298.456 795.005 300.257L795.005 306.754C795.005 308.544 796.347 310 798.008 310 799.653 310 800.995 308.544 800.995 306.754L800.995 300.257C800.995 298.456 799.653 297 798.008 297Z" fill="#48FFD5" fill-rule="evenodd"/><path d="M820.011 297C818.349 297 817.005 298.456 817.005 300.257L817.005 306.754C817.005 308.544 818.349 310 820.011 310 821.657 310 823 308.544 823 306.754L823 300.257C823 298.456 821.657 297 820.011 297Z" fill="#48FFD5" fill-rule="evenodd"/><path d="M837.011 303C835.343 303 834 304.456 834 306.257L834 312.76C834 314.544 835.343 316 837.011 316 838.657 316 840 314.544 840 312.76L840 306.257C840 304.456 838.657 303 837.011 303Z" fill="#48FFD5" fill-rule="evenodd"/><path d="M781.005 303C779.343 303 778 304.456 778 306.257L778 312.76C778 314.544 779.343 316 781.005 316 782.651 316 783.995 314.544 783.995 312.76L783.995 306.257C783.995 304.456 782.651 303 781.005 303Z" fill="#48FFD5" fill-rule="evenodd"/><path d="M808.997 310.006C807.439 310.006 806.179 311.448 806.179 313.232L806.179 316.852C800.438 318.38 795.219 324.526 792.132 333.693 791.694 334.97 790.638 335.756 789.513 335.756 789.174 335.756 788.826 335.682 788.487 335.528 787.048 334.896 786.311 333.043 786.883 331.378 788.547 326.396 790.812 322.143 793.451 318.757L793.451 318.757C774.709 324.406 761 339.975 761 358.275L761 361.501C761 363.286 762.26 364.711 763.808 364.711 765.367 364.711 766.627 363.286 766.627 361.501 766.627 358.018 770.481 355.065 775.052 355.065 779.623 355.065 783.672 358.018 783.672 361.501 783.672 363.286 784.932 364.711 786.495 364.711 788.039 364.711 789.299 363.286 789.299 361.501 789.299 358.018 793.168 355.065 797.739 355.065 802.31 355.065 806.164 358.018 806.164 361.501L806.164 394.122C806.164 397.673 803.645 400.558 800.542 400.558 797.44 400.558 794.92 397.673 794.92 394.122L794.92 390.895C794.92 389.122 793.661 387.68 792.117 387.68 790.558 387.68 789.299 389.122 789.299 390.895L789.299 394.122C789.299 401.225 794.333 406.994 800.542 406.994 806.752 406.994 811.791 401.225 811.791 394.122L811.791 361.501C811.791 358.018 815.655 355.065 820.231 355.065 824.802 355.065 828.657 358.018 828.657 361.501 828.657 363.286 829.916 364.711 831.475 364.711 833.019 364.711 834.279 363.286 834.279 361.501 834.279 358.018 838.327 355.065 842.903 355.065 847.474 355.065 851.343 358.018 851.343 361.501 851.343 363.286 852.603 364.711 854.147 364.711 855.705 364.711 856.965 363.286 856.965 361.501L856.965 358.292C856.995 339.975 843.276 324.406 824.534 318.757L824.534 318.757C827.188 322.143 829.438 326.396 831.117 331.378 831.669 333.043 830.952 334.896 829.498 335.528 829.16 335.682 828.811 335.756 828.472 335.756 827.347 335.756 826.296 334.97 825.868 333.693 822.781 324.526 817.562 318.38 811.806 316.852L811.806 313.232C811.806 311.448 810.546 310.006 808.997 310.006Z" fill="#48FFD5" fill-rule="evenodd"/></g></svg>